{
  "accessors": [
    {
      "bufferView": 2,
      "componentType": 5126,
      "count": 48,
      "max": [
        0.5,
        0.5,
        0.15000000596046448
      ],
      "min": [
        -0.5,
        -0.5,
        0.0
      ],
      "type": "VEC3"
    },
    {
      "bufferView": 2,
      "byteOffset": 576,
      "componentType": 5126,
      "count": 48,
      "max": [
        1.0,
        1.0,
        1.0
      ],
      "min": [
        -1.0,
        -1.0,
        -1.0
      ],
      "type": "VEC3"
    },
    {
      "bufferView": 1,
      "componentType": 5126,
      "count": 48,
      "max": [
        0.875,
        1.0
      ],
      "min": [
        0.125,
        0.0
      ],
      "type": "VEC2"
    },
    {
      "bufferView": 0,
      "componentType": 5125,
      "count": 84,
      "type": "SCALAR"
    },
    {
      "bufferView": 2,
      "byteOffset": 1152,
      "componentType": 5126,
      "count": 1658,
      "max": [
        0.4199999272823334,
        0.34999993443489075,
        0.5198450088500977
      ],
      "min": [
        -0.41999998688697815,
        -0.3499999940395355,
        -0.00015495717525482178
      ],
      "type": "VEC3"
    },
    {
      "bufferView": 2,
      "byteOffset": 21048,
      "componentType": 5126,
      "count": 1658,
      "max": [
        0.9659259915351868,
        0.9659260511398315,
        0.0982409417629242
      ],
      "min": [
        -0.9659259915351868,
        -0.9659260511398315,
        -0.0982409417629242
      ],
      "type": "VEC3"
    },
    {
      "bufferView": 1,
      "byteOffset": 384,
      "componentType": 5126,
      "count": 1658,
      "max": [
        1.0,
        1.0
      ],
      "min": [
        7.450580596923828e-08,
        0.5
      ],
      "type": "VEC2"
    },
    {
      "bufferView": 0,
      "byteOffset": 336,
      "componentType": 5125,
      "count": 2520,
      "type": "SCALAR"
    },
    {
      "bufferView": 2,
      "byteOffset": 40944,
      "componentType": 5126,
      "count": 172,
      "max": [
        1.0,
        0.9999999403953552,
        1.686403512954712
      ],
      "min": [
        -1.0,
        -1.0,
        0.0
      ],
      "type": "VEC3"
    },
    {
      "bufferView": 2,
      "byteOffset": 43008,
      "componentType": 5126,
      "count": 172,
      "max": [
        1.0,
        0.9978253245353699,
        0.14541460573673248
      ],
      "min": [
        -1.0,
        -0.9978253245353699,
        -0.14541451632976532
      ],
      "type": "VEC3"
    },
    {
      "bufferView": 1,
      "byteOffset": 13648,
      "componentType": 5126,
      "count": 172,
      "max": [
        0.625,
        1.0
      ],
      "min": [
        0.375,
        0.0
      ],
      "type": "VEC2"
    },
    {
      "bufferView": 0,
      "byteOffset": 10416,
      "componentType": 5125,
      "count": 288,
      "type": "SCALAR"
    },
    {
      "bufferView": 2,
      "byteOffset": 45072,
      "componentType": 5126,
      "count": 100,
      "max": [
        1.0000001192092896,
        0.9999999403953552,
        0.35566866397857666
      ],
      "min": [
        -1.0000001192092896,
        -1.0,
        -0.08699585497379303
      ],
      "type": "VEC3"
    },
    {
      "bufferView": 2,
      "byteOffset": 46272,
      "componentType": 5126,
      "count": 100,
      "max": [
        1.0,
        1.0,
        1.0
      ],
      "min": [
        -1.0,
        -1.0,
        -1.0
      ],
      "type": "VEC3"
    },
    {
      "bufferView": 1,
      "byteOffset": 15024,
      "componentType": 5126,
      "count": 100,
      "max": [
        0.6076701879501343,
        1.0
      ],
      "min": [
        0.125,
        -0.0015876758843660355
      ],
      "type": "VEC2"
    },
    {
      "bufferView": 0,
      "byteOffset": 11568,
      "componentType": 5125,
      "count": 156,
      "type": "SCALAR"
    },
    {
      "bufferView": 2,
      "byteOffset": 47472,
      "componentType": 5126,
      "count": 138,
      "max": [
        1.0000001192092896,
        0.9999999403953552,
        0.4013310372829437
      ],
      "min": [
        -1.0000001192092896,
        -1.0,
        -0.05332448333501816
      ],
      "type": "VEC3"
    },
    {
      "bufferView": 2,
      "byteOffset": 49128,
      "componentType": 5126,
      "count": 138,
      "max": [
        1.0,
        0.999399721622467,
        1.0
      ],
      "min": [
        -1.0,
        -0.999399721622467,
        -6.829706222788445e-08
      ],
      "type": "VEC3"
    },
    {
      "bufferView": 1,
      "byteOffset": 15824,
      "componentType": 5126,
      "count": 138,
      "max": [
        0.6235989332199097,
        1.0
      ],
      "min": [
        0.0,
        -0.0015876758843660355
      ],
      "type": "VEC2"
    },
    {
      "bufferView": 0,
      "byteOffset": 12192,
      "componentType": 5125,
      "count": 192,
      "type": "SCALAR"
    },
    {
      "bufferView": 2,
      "byteOffset": 50784,
      "componentType": 5126,
      "count": 8,
      "max": [
        1.0,
        0.9841488003730774,
        0.35566866397857666
      ],
      "min": [
        0.9692170023918152,
        -1.0,
        -0.04426687955856323
      ],
      "type": "VEC3"
    },
    {
      "bufferView": 2,
      "byteOffset": 50880,
      "componentType": 5126,
      "count": 8,
      "max": [
        1.0,
        7.609294243593467e-06,
        0.0
      ],
      "min": [
        1.0,
        0.0,
        -3.251929285852384e-07
      ],
      "type": "VEC3"
    },
    {
      "bufferView": 1,
      "byteOffset": 16928,
      "componentType": 5126,
      "count": 8,
      "max": [
        0.6076701879501343,
        0.75
      ],
      "min": [
        0.36786189675331116,
        0.4984123408794403
      ],
      "type": "VEC2"
    },
    {
      "bufferView": 0,
      "byteOffset": 12960,
      "componentType": 5125,
      "count": 12,
      "type": "SCALAR"
    },
    {
      "bufferView": 2,
      "byteOffset": 50976,
      "componentType": 5126,
      "count": 278,
      "max": [
        1.0,
        1.9999923706054688,
        1.050307035446167
      ],
      "min": [
        -1.0000005960464478,
        -30.53740882873535,
        -2.0185117721557617
      ],
      "type": "VEC3"
    },
    {
      "bufferView": 2,
      "byteOffset": 54312,
      "componentType": 5126,
      "count": 278,
      "max": [
        1.0,
        1.0,
        1.0
      ],
      "min": [
        -1.0,
        -1.0,
        -1.0
      ],
      "type": "VEC3"
    },
    {
      "bufferView": 1,
      "byteOffset": 16992,
      "componentType": 5126,
      "count": 278,
      "max": [
        0.8567250967025757,
        0.75
      ],
      "min": [
        0.125,
        0.0
      ],
      "type": "VEC2"
    },
    {
      "bufferView": 0,
      "byteOffset": 13008,
      "componentType": 5125,
      "count": 702,
      "type": "SCALAR"
    },
    {
      "bufferView": 2,
      "byteOffset": 57648,
      "componentType": 5126,
      "count": 44,
      "max": [
        0.8691778182983398,
        1.6307317018508911,
        0.9194848537445068
      ],
      "min": [
        -0.8691785335540771,
        -30.168148040771484,
        -1.8876895904541016
      ],
      "type": "VEC3"
    },
    {
      "bufferView": 2,
      "byteOffset": 58176,
      "componentType": 5126,
      "count": 44,
      "max": [
        0.0,
        1.0,
        1.1789304153353442e-05
      ],
      "min": [
        0.0,
        -1.0,
        -5.894652531424072e-06
      ],
      "type": "VEC3"
    },
    {
      "bufferView": 1,
      "byteOffset": 19216,
      "componentType": 5126,
      "count": 44,
      "max": [
        0.6250000596046448,
        0.4836472272872925
      ],
      "min": [
        0.3913527727127075,
        0.26635274291038513
      ],
      "type": "VEC2"
    },
    {
      "bufferView": 0,
      "byteOffset": 15816,
      "componentType": 5125,
      "count": 117,
      "type": "SCALAR"
    },
    {
      "bufferView": 2,
      "byteOffset": 58704,
      "componentType": 5126,
      "count": 222,
      "max": [
        86.61195373535156,
        358.36865234375,
        572.6531982421875
      ],
      "min": [
        -3.0517578125e-05,
        -3.0517578125e-05,
        -572.6532592773438
      ],
      "type": "VEC3"
    },
    {
      "bufferView": 2,
      "byteOffset": 61368,
      "componentType": 5126,
      "count": 222,
      "max": [
        2.95499887670303e-07,
        1.0,
        1.0
      ],
      "min": [
        -1.0,
        -1.0,
        -1.0
      ],
      "type": "VEC3"
    },
    {
      "bufferView": 1,
      "byteOffset": 19568,
      "componentType": 5126,
      "count": 222,
      "max": [
        0.8750000596046448,
        1.0
      ],
      "min": [
        0.0,
        0.0
      ],
      "type": "VEC2"
    },
    {
      "bufferView": 0,
      "byteOffset": 16284,
      "componentType": 5125,
      "count": 414,
      "type": "SCALAR"
    },
    {
      "bufferView": 2,
      "byteOffset": 64032,
      "componentType": 5126,
      "count": 58,
      "max": [
        33.978424072265625,
        345.0231628417969,
        508.0601806640625
      ],
      "min": [
        22.223876953125,
        -3.0517578125e-05,
        -508.060302734375
      ],
      "type": "VEC3"
    },
    {
      "bufferView": 2,
      "byteOffset": 64728,
      "componentType": 5126,
      "count": 58,
      "max": [
        0.0,
        0.0032650656066834927,
        1.0
      ],
      "min": [
        -1.0,
        -2.231871008007147e-07,
        -1.0
      ],
      "type": "VEC3"
    },
    {
      "bufferView": 1,
      "byteOffset": 21344,
      "componentType": 5126,
      "count": 58,
      "max": [
        0.6250001192092896,
        0.7359005808830261
      ],
      "min": [
        0.38952764868736267,
        0.5140994787216187
      ],
      "type": "VEC2"
    },
    {
      "bufferView": 0,
      "byteOffset": 17940,
      "componentType": 5125,
      "count": 102,
      "type": "SCALAR"
    }
  ],
  "asset": {
    "extras": {
      "author": "ChojoThePony (https://sketchfab.com/chojothepony)",
      "license": "CC-BY-4.0 (http://creativecommons.org/licenses/by/4.0/)",
      "source": "https://sketchfab.com/3d-models/university-stilized-1-5b05e1b7ca514ae5bc945ac030af3767",
      "title": "University Stilized 1"
    },
    "generator": "Sketchfab-12.68.0",
    "version": "2.0"
  },
  "bufferViews": [
    {
      "buffer": 0,
      "byteLength": 18348,
      "name": "floatBufferViews",
      "target": 34963
    },
    {
      "buffer": 0,
      "byteLength": 21808,
      "byteOffset": 18348,
      "byteStride": 8,
      "name": "floatBufferViews",
      "target": 34962
    },
    {
      "buffer": 0,
      "byteLength": 65424,
      "byteOffset": 40156,
      "byteStride": 12,
      "name": "floatBufferViews",
      "target": 34962
    }
  ],
  "buffers": [
    {
      "byteLength": 105580,
      "uri": "scene.bin"
    }
  ],
  "materials": [
    {
      "doubleSided": true,
      "name": "Material.002",
      "pbrMetallicRoughness": {
        "baseColorFactor": [
          0.226584,
          0.226584,
          0.226584,
          1.0
        ],
        "metallicFactor": 0.0,
        "roughnessFactor": 0.9493342773
      }
    },
    {
      "doubleSided": true,
      "name": "Material.006",
      "pbrMetallicRoughness": {
        "baseColorFactor": [
          0.814042,
          0.702333,
          0.573117,
          1.0
        ],
        "metallicFactor": 0.0,
        "roughnessFactor": 0.8397291707
      }
    },
    {
      "doubleSided": true,
      "name": "Material.004",
      "pbrMetallicRoughness": {
        "baseColorFactor": [
          0.814042,
          0.702333,
          0.573117,
          1.0
        ],
        "metallicFactor": 0.0,
        "roughnessFactor": 0.8397291707
      }
    },
    {
      "doubleSided": true,
      "name": "Material.007",
      "pbrMetallicRoughness": {
        "baseColorFactor": [
          0.814042,
          0.702333,
          0.573117,
          1.0
        ],
        "metallicFactor": 0.0,
        "roughnessFactor": 0.8397291707
      }
    },
    {
      "doubleSided": true,
      "name": "ceiling",
      "pbrMetallicRoughness": {
        "baseColorFactor": [
          0.8,
          0.0749269,
          0.0365597,
          1.0
        ],
        "metallicFactor": 0.0,
        "roughnessFactor": 0.9493961428
      }
    },
    {
      "doubleSided": true,
      "name": "material_0",
      "pbrMetallicRoughness": {
        "baseColorFactor": [
          0.814042,
          0.702333,
          0.573117,
          1.0
        ],
        "metallicFactor": 0.0,
        "roughnessFactor": 0.8397291707112094
      }
    },
    {
      "doubleSided": true,
      "name": "Material.009",
      "pbrMetallicRoughness": {
        "baseColorFactor": [
          0.318539,
          0.276034,
          0.226713,
          1.0
        ],
        "metallicFactor": 0.0,
        "roughnessFactor": 0.9370525428
      }
    },
    {
      "doubleSided": true,
      "name": "Material.010",
      "pbrMetallicRoughness": {
        "baseColorFactor": [
          0.0298184137,
          0.2340928837,
          0.3310827365,
          1.0
        ],
        "metallicFactor": 0.0,
        "roughnessFactor": 0.9949531029
      }
    },
    {
      "doubleSided": true,
      "name": "edges",
      "pbrMetallicRoughness": {
        "baseColorFactor": [
          0.318539,
          0.276034,
          0.226713,
          1.0
        ],
        "metallicFactor": 0.0,
        "roughnessFactor": 0.9370525428
      }
    },
    {
      "doubleSided": true,
      "name": "wood",
      "pbrMetallicRoughness": {
        "baseColorFactor": [
          0.167949,
          0.0473802,
          0.0220484,
          1.0
        ],
        "metallicFactor": 0.0,
        "roughnessFactor": 0.9840827355
      }
    }
  ],
  "meshes": [
    {
      "name": "Cube_Material.002_0",
      "primitives": [
        {
          "attributes": {
            "NORMAL": 1,
            "POSITION": 0,
            "TEXCOORD_0": 2
          },
          "indices": 3,
          "material": 0,
          "mode": 4
        }
      ]
    },
    {
      "name": "Cylinder.001_Material.006_0",
      "primitives": [
        {
          "attributes": {
            "NORMAL": 5,
            "POSITION": 4,
            "TEXCOORD_0": 6
          },
          "indices": 7,
          "material": 1,
          "mode": 4
        }
      ]
    },
    {
      "name": "Cube.001_Material.004_0",
      "primitives": [
        {
          "attributes": {
            "NORMAL": 9,
            "POSITION": 8,
            "TEXCOORD_0": 10
          },
          "indices": 11,
          "material": 2,
          "mode": 4
        }
      ]
    },
    {
      "name": "ceiling_Material.007_0",
      "primitives": [
        {
          "attributes": {
            "NORMAL": 13,
            "POSITION": 12,
            "TEXCOORD_0": 14
          },
          "indices": 15,
          "material": 3,
          "mode": 4
        }
      ]
    },
    {
      "name": "ceiling_ceiling_0",
      "primitives": [
        {
          "attributes": {
            "NORMAL": 17,
            "POSITION": 16,
            "TEXCOORD_0": 18
          },
          "indices": 19,
          "material": 4,
          "mode": 4
        }
      ]
    },
    {
      "name": "ceiling_base_0",
      "primitives": [
        {
          "attributes": {
            "NORMAL": 21,
            "POSITION": 20,
            "TEXCOORD_0": 22
          },
          "indices": 23,
          "material": 5,
          "mode": 4
        }
      ]
    },
    {
      "name": "Cube.004_Material.009_0",
      "primitives": [
        {
          "attributes": {
            "NORMAL": 25,
            "POSITION": 24,
            "TEXCOORD_0": 26
          },
          "indices": 27,
          "material": 6,
          "mode": 4
        }
      ]
    },
    {
      "name": "Cube.004_Material.010_0",
      "primitives": [
        {
          "attributes": {
            "NORMAL": 29,
            "POSITION": 28,
            "TEXCOORD_0": 30
          },
          "indices": 31,
          "material": 7,
          "mode": 4
        }
      ]
    },
    {
      "name": "Cube.003_edges_0",
      "primitives": [
        {
          "attributes": {
            "NORMAL": 33,
            "POSITION": 32,
            "TEXCOORD_0": 34
          },
          "indices": 35,
          "material": 8,
          "mode": 4
        }
      ]
    },
    {
      "name": "Cube.003_wood_0",
      "primitives": [
        {
          "attributes": {
            "NORMAL": 37,
            "POSITION": 36,
            "TEXCOORD_0": 38
          },
          "indices": 39,
          "material": 9,
          "mode": 4
        }
      ]
    }
  ],
  "nodes": [
    {
      "children": [
        1
      ],
      "matrix": [
        1.0,
        0.0,
        0.0,
        0.0,
        0.0,
        2.220446049250313e-16,
        -1.0,
        0.0,
        0.0,
        1.0,
        2.220446049250313e-16,
        0.0,
        0.0,
        0.0,
        0.0,
        1.0
      ],
      "name": "Sketchfab_model"
    },
    {
      "children": [
        2
      ],
      "matrix": [
        1.0,
        0.0,
        0.0,
        0.0,
        0.0,
        0.0,
        1.0,
        0.0,
        0.0,
        -1.0,
        0.0,
        0.0,
        0.0,
        0.0,
        0.0,
        1.0
      ],
      "name": "d58d5e6f5c354b80b7b30b012989a3f4.fbx"
    },
    {
      "children": [
        3,
        6,
        8,
        10,
        12,
        14,
        18,
        21
      ],
      "name": "RootNode"
    },
    {
      "children": [
        4
      ],
      "matrix": [
        -29.08647719990347,
        -5.518906457566863,
        -95.51711910171437,
        0.0,
        56.63930913109449,
        79.46723428563203,
        -21.83912397841966,
        0.0,
        77.11008775993375,
        -60.45246356562044,
        -19.98834696773717,
        0.0,
        407.6245422363281,
        590.38623046875,
        -100.54539489746094,
        1.0
      ],
      "name": "Light"
    },
    {
      "children": [
        5
      ],
      "matrix": [
        1.0,
        0.0,
        0.0,
        0.0,
        0.0,
        2.220446049250313e-16,
        1.0,
        0.0,
        0.0,
        -1.0,
        2.220446049250313e-16,
        0.0,
        0.0,
        0.0,
        0.0,
        1.0
      ],
      "name": "Object_4"
    },
    {
      "name": "Object_5"
    },
    {
      "children": [
        7
      ],
      "matrix": [
        -65.15583280329096,
        -44.52713576570858,
        -61.41703047373549,
        0.0,
        -32.40134137821245,
        89.53957451233616,
        -30.542088974418615,
        0.0,
        68.59205472129975,
        -1.0718647115348782e-05,
        -72.7676336239627,
        0.0,
        735.88916015625,
        495.8309326171875,
        692.5791015625,
        1.0
      ],
      "name": "Camera"
    },
    {
      "name": "Object_7"
    },
    {
      "children": [
        9
      ],
      "matrix": [
        100.0,
        0.0,
        0.0,
        0.0,
        0.0,
        -1.629206793918314e-05,
        -99.99999999999868,
        0.0,
        0.0,
        60.08491516113202,
        -9.78907519925231e-06,
        0.0,
        0.0,
        0.0,
        0.0,
        1.0
      ],
      "name": "Cube"
    },
    {
      "mesh": 0,
      "name": "Cube_Material.002_0"
    },
    {
      "children": [
        11
      ],
      "matrix": [
        100.0,
        0.0,
        0.0,
        0.0,
        0.0,
        -1.629206793918314e-05,
        -99.99999999999868,
        0.0,
        0.0,
        82.18303680419814,
        -1.3389316190624022e-05,
        0.0,
        0.0,
        9.012738227844238,
        0.0,
        1.0
      ],
      "name": "Cylinder.001"
    },
    {
      "mesh": 1,
      "name": "Cylinder.001_Material.006_0"
    },
    {
      "children": [
        13
      ],
      "matrix": [
        25.887907028198242,
        0.0,
        0.0,
        0.0,
        0.0,
        -6.083350053556495e-06,
        -37.33933639526318,
        0.0,
        0.0,
        25.8879070281979,
        -4.2176754010666245e-06,
        0.0,
        0.0,
        9.0,
        -8.881784197001252e-14,
        1.0
      ],
      "name": "Cube.001"
    },
    {
      "mesh": 2,
      "name": "Cube.001_Material.004_0"
    },
    {
      "children": [
        15,
        16,
        17
      ],
      "matrix": [
        46.52913284301758,
        0.0,
        0.0,
        0.0,
        0.0,
        -7.170084756680443e-06,
        -44.00966644287051,
        0.0,
        0.0,
        42.582286834716236,
        -6.937535101169899e-06,
        0.0,
        0.0,
        53.51809310913086,
        -8.881784197001252e-14,
        1.0
      ],
      "name": "ceiling"
    },
    {
      "mesh": 3,
      "name": "ceiling_Material.007_0"
    },
    {
      "mesh": 4,
      "name": "ceiling_ceiling_0"
    },
    {
      "mesh": 5,
      "name": "ceiling_base_0"
    },
    {
      "children": [
        19,
        20
      ],
      "matrix": [
        -9.171785354614151,
        4.592721994959432e-14,
        1.384901058773819e-06,
        0.0,
        3.5979831355840584e-07,
        1.7989915769148898e-07,
        2.382836580276455,
        0.0,
        -5.86299014370283e-14,
        9.171785354614231,
        -6.924505308618476e-07,
        0.0,
        0.0,
        34.538875579833984,
        34.0,
        1.0
      ],
      "name": "Cube.004"
    },
    {
      "mesh": 6,
      "name": "Cube.004_Material.009_0"
    },
    {
      "mesh": 7,
      "name": "Cube.004_Material.010_0"
    },
    {
      "children": [
        22,
        23
      ],
      "matrix": [
        0.09171785414218903,
        0.0,
        0.0,
        0.0,
        0.0,
        0.0917178541421878,
        1.4942735618342636e-08,
        0.0,
        0.0,
        -3.882133228531656e-09,
        0.023828363046049753,
        0.0,
        -29.191917419433594,
        8.94472885131836,
        -5.9604644775390625e-06,
        1.0
      ],
      "name": "Cube.003"
    },
    {
      "mesh": 8,
      "name": "Cube.003_edges_0"
    },
    {
      "mesh": 9,
      "name": "Cube.003_wood_0"
    }
  ],
  "scene": 0,
  "scenes": [
    {
      "name": "Sketchfab_Scene",
      "nodes": [
        0
      ]
    }
  ]
}
